<svg id="Capa_1" data-name="Capa 1" xmlns="http://www.w3.org/2000/svg" viewBox="0 0 269.67 64.38"><defs><style>.cls-1{fill:#d4d6d5;}.cls-2{fill:#e7ca00;}</style></defs><title>logo_pulsia_sin fondo_para fondos oscuros</title><path class="cls-1" d="M61.27,103H58.42v9.39h-.87V103H54.67v-.41h6.6Z" transform="translate(-54.67 -48.06)"/><path class="cls-1" d="M89.34,112v.42H83.75v-9.8h5.5V103H84.64v3.93h3.72v.42H84.64V112Z" transform="translate(-54.67 -48.06)"/><path class="cls-1" d="M117.06,105.67v-1.82A1,1,0,0,0,116,103h-2a1,1,0,0,0-1.08.89v7.28A1,1,0,0,0,114,112h2a1,1,0,0,0,1.08-.83V109h.9v2.1c0,.68-.85,1.3-1.9,1.3H114c-1.08,0-2-.61-2-1.3v-7.28c0-.69.9-1.3,2-1.3h2c1.08,0,2,.61,2,1.3v1.82Z" transform="translate(-54.67 -48.06)"/><path class="cls-1" d="M147.55,102.59v9.8h-.89v-5h-4.4v5h-.89v-9.8h.89v4.34h4.4v-4.34Z" transform="translate(-54.67 -48.06)"/><path class="cls-1" d="M177.34,102.59v9.8h-1.76l-3.51-9.29v9.29h-.89v-9.8h1.57l3.72,9.45v-9.45Z" transform="translate(-54.67 -48.06)"/><path class="cls-1" d="M207.14,103.85v7.28c0,.69-.9,1.3-2,1.3H203c-1.09,0-2-.61-2-1.3v-7.28c0-.69.9-1.3,2-1.3h2.19C206.24,102.55,207.14,103.16,207.14,103.85Zm-.88,7.28v-7.28a1,1,0,0,0-1.11-.89H203a1,1,0,0,0-1.09.89v7.28A1,1,0,0,0,203,112h2.19A1,1,0,0,0,206.26,111.13Z" transform="translate(-54.67 -48.06)"/><path class="cls-1" d="M235.86,112v.42h-5.05v-9.8h.89V112Z" transform="translate(-54.67 -48.06)"/><path class="cls-1" d="M264.87,103.85v7.28c0,.69-.89,1.3-2,1.3h-2.2c-1.09,0-2-.61-2-1.3v-7.28c0-.69.89-1.3,2-1.3h2.2C264,102.55,264.87,103.16,264.87,103.85Zm-.87,7.28v-7.28a1,1,0,0,0-1.11-.89h-2.2a1,1,0,0,0-1.09.89v7.28a1,1,0,0,0,1.09.89h2.2A1.05,1.05,0,0,0,264,111.13Z" transform="translate(-54.67 -48.06)"/><path class="cls-1" d="M294.7,107.9v3.23c0,.69-.87,1.3-2,1.3h-2.22c-1.09,0-2-.61-2-1.3v-7.28c0-.69.89-1.3,2-1.3h2.09c1.07,0,1.94.61,1.94,1.3v1.82h-.89v-1.82a1,1,0,0,0-1.09-.89h-2.05a1,1,0,0,0-1.09.89v7.28a1,1,0,0,0,1.09.89h2.2a1,1,0,0,0,1.11-.89v-2.79h-2.41v-.44Z" transform="translate(-54.67 -48.06)"/><path class="cls-1" d="M324.34,102.59l-3,5.45v4.35h-.87V108l-3-5.45h.89l2.53,4.65,2.52-4.65Z" transform="translate(-54.67 -48.06)"/><rect class="cls-2" x="0.92" y="39.15" width="25" height="1.74"/><rect class="cls-2" x="200.8" y="31.33" width="68.53" height="1.74"/><path class="cls-1" d="M68,48.06a29.68,29.68,0,0,1,6.43.61,10.42,10.42,0,0,1,4.75,2.43,7.42,7.42,0,0,1,2.48,5,6.68,6.68,0,0,1-1.7,5.2q-3.3,3.78-11.68,3.78H58c.07,6.59.11,11.5.11,14.76a.88.88,0,0,1-.65.86,1.69,1.69,0,0,1-1.25,0,.87.87,0,0,1-.62-.86q0-5.1-.11-15.4T55.35,49a.83.83,0,0,1,.39-.68,1.47,1.47,0,0,1,.89-.28Zm.89,15.06a13.87,13.87,0,0,0,7.58-1.87,5.39,5.39,0,0,0,2.59-5.44,5.3,5.3,0,0,0-2.17-3.74,9.69,9.69,0,0,0-4.76-1.94c-.4-.06-2-.09-4.91-.09H57.86q0,4.37.12,13.08H58l5.47,0C67.12,63.16,68.92,63.15,68.92,63.12Z" transform="translate(-54.67 -48.06)"/><path class="cls-1" d="M91.05,62.15v6.57a12.19,12.19,0,0,0,.61,4.8,8.57,8.57,0,0,0,3.83,3.77,13,13,0,0,0,5.67,1.47A20.27,20.27,0,0,0,107,78.1a10.19,10.19,0,0,0,4.75-2.71,6.8,6.8,0,0,0,2-4.56q.1-3.21.11-6.83t-.06-8c0-2.93,0-5.19,0-6.78a.86.86,0,0,1,.61-.86,1.71,1.71,0,0,1,1.26,0,.87.87,0,0,1,.64.86V64q0,.52.06,2.58c0,1.37,0,2.35,0,3s-.14,1.43-.31,2.49a8.51,8.51,0,0,1-.92,2.78,8.92,8.92,0,0,1-1.79,2.2,14.79,14.79,0,0,1-7.91,3.59,18.52,18.52,0,0,1-9.3-.84,11.75,11.75,0,0,1-6.48-5,11,11,0,0,1-1.12-5.55v-20a.87.87,0,0,1,.62-.86,1.71,1.71,0,0,1,1.26,0,.88.88,0,0,1,.64.86Z" transform="translate(-54.67 -48.06)"/><path class="cls-1" d="M125.75,49.07c0-.62.41-.93,1.25-.93s1.26.31,1.26.93V78.76h21.9a1.18,1.18,0,0,1,1.09.49.89.89,0,0,1,0,1,1.19,1.19,0,0,1-1.09.5H127a1.35,1.35,0,0,1-.86-.28.83.83,0,0,1-.36-.69Z" transform="translate(-54.67 -48.06)"/><path class="cls-1" d="M173.51,78.8a24.77,24.77,0,0,0,6.87-.41,7.09,7.09,0,0,0,4.69-2.76,4.49,4.49,0,0,0,.76-4.23,5,5,0,0,0-3.33-3.21,13.81,13.81,0,0,0-2.42-.66c-.92-.18-1.71-.3-2.38-.38l-2.65-.24c-1.1-.09-1.91-.16-2.43-.22-4-.47-6.86-1.36-8.5-2.69a8.05,8.05,0,0,1-2.9-5.37,7.94,7.94,0,0,1,3.13-6.9,14.86,14.86,0,0,1,8.49-3.45,16.78,16.78,0,0,1,10.67,2.33q4.76,2.91,5,7.58a.84.84,0,0,1-.61.85,1.62,1.62,0,0,1-1.26,0,.85.85,0,0,1-.64-.85,6.67,6.67,0,0,0-2.07-4.6,10.11,10.11,0,0,0-4.83-2.69,20.08,20.08,0,0,0-5.9-.6,11.87,11.87,0,0,0-5.55,1.63,7.81,7.81,0,0,0-3.5,4,5.37,5.37,0,0,0,.73,5.51,6.67,6.67,0,0,0,1.76,1.63,8.07,8.07,0,0,0,2.6,1c1,.24,1.87.4,2.49.49s1.55.19,2.82.31l2.15.19,2.09.25a18.45,18.45,0,0,1,2.26.37l2,.53a7.23,7.23,0,0,1,2,.77c.47.3,1,.64,1.51,1a4.49,4.49,0,0,1,1.26,1.36,5.44,5.44,0,0,1,.61,1.74,7.48,7.48,0,0,1-.42,4,7,7,0,0,1-2.54,3.24c-2,1.41-5,2.2-9.16,2.37a18.82,18.82,0,0,1-10.7-2.48q-4.61-2.76-4.83-7.51a.86.86,0,0,1,.61-.86,1.71,1.71,0,0,1,1.26,0,.87.87,0,0,1,.64.86,7,7,0,0,0,3.1,5.48A12.9,12.9,0,0,0,173.51,78.8Z" transform="translate(-54.67 -48.06)"/><path class="cls-1" d="M203.62,79.86a.86.86,0,0,1-.61.86,1.64,1.64,0,0,1-1.23,0,.86.86,0,0,1-.61-.86V49.2a.86.86,0,0,1,.61-.86,1.64,1.64,0,0,1,1.23,0,.86.86,0,0,1,.61.86Z" transform="translate(-54.67 -48.06)"/><path class="cls-1" d="M230.83,48.76q1.46,3.16,6.37,14.05l7.6,16.83a.67.67,0,0,1-.22.93,1.63,1.63,0,0,1-1.2.24,1.23,1.23,0,0,1-1-.64c-.34-.71-.92-2-1.73-3.81s-1.46-3.24-1.9-4.21h-18.5q-2.9,6.3-3.74,8a1,1,0,0,1-.92.65,1.57,1.57,0,0,1-1.2-.26.7.7,0,0,1-.28-.92q3.08-6.52,14.3-30.84a1.23,1.23,0,0,1,1.23-.7A1.11,1.11,0,0,1,230.83,48.76Zm-9.66,21.41h16.7Q232.4,58,229.61,51.89q-1.58,3.44-4.48,9.67C223.2,65.71,221.88,68.59,221.17,70.17Z" transform="translate(-54.67 -48.06)"/><path class="cls-1" d="M58.11,78.84c0,1.1-.62,2-1.38,2s-1.38-.9-1.38-2V50.12c0-1.1.62-2,1.38-2s1.38.9,1.38,2Z" transform="translate(-54.67 -48.06)"/></svg>