<svg xmlns="http://www.w3.org/2000/svg" width="39.584" height="39.58" viewBox="0 0 39.584 39.58">
  <title>Icono Globo</title>
  <g transform="translate(0 -0.022)">
    <g data-name="Grupo 1308" transform="translate(0 0.022)">
      <path data-name="Trazado 2439" d="M19.769.022a19.821,19.821,0,0,0-2.124.114,18.682,18.682,0,0,0-1.915.306q-.183.038-.366.081A19.793,19.793,0,0,0,5.6,5.989q-.371.38-.727.783A19.815,19.815,0,0,0,33.94,33.684q.372-.38.727-.783A19.814,19.814,0,0,0,19.769.022ZM6.48,6.98c.1-.108.213-.212.319-.317.123-.121.245-.242.371-.359.11-.1.224-.2.337-.3s.254-.226.385-.335c.115-.1.233-.19.351-.284s.264-.211.4-.313c.12-.09.242-.178.365-.264s.274-.2.413-.289.251-.166.378-.248.283-.18.427-.264.259-.153.39-.227q.219-.125.441-.244.2-.106.4-.207c.151-.076.3-.149.455-.221.132-.063.269-.125.406-.185l.47-.2c.137-.056.273-.111.411-.164.16-.061.322-.118.483-.174.138-.048.276-.1.416-.142.164-.053.33-.1.5-.15.139-.04.277-.082.417-.12l.16-.039a16.389,16.389,0,0,0-4.221,6.855A22.184,22.184,0,0,1,6.421,7.046C6.443,7.023,6.461,7,6.48,6.98Zm-.95,1.063a22.948,22.948,0,0,0,5.012,1.995A34.274,34.274,0,0,0,9.21,19.176H1.29A18.454,18.454,0,0,1,5.531,8.044Zm0,23.586A18.456,18.456,0,0,1,1.29,20.5H9.21a34.271,34.271,0,0,0,1.334,9.138A22.964,22.964,0,0,0,5.531,31.63ZM15,37.7c-.133-.034-.271-.077-.409-.118-.167-.049-.335-.1-.5-.151-.139-.045-.277-.093-.414-.141-.162-.056-.325-.114-.485-.175-.137-.052-.273-.107-.409-.162l-.472-.2q-.2-.089-.4-.184c-.154-.073-.307-.147-.462-.223-.132-.066-.264-.132-.4-.2-.149-.08-.3-.162-.445-.246-.132-.073-.258-.149-.385-.225-.145-.087-.288-.177-.431-.269-.125-.08-.251-.161-.374-.244-.141-.1-.28-.194-.418-.293-.121-.087-.242-.173-.361-.264-.137-.1-.271-.209-.4-.316C8.118,34.2,8,34.1,7.887,34.007c-.132-.11-.26-.224-.388-.338-.112-.1-.225-.2-.335-.3-.126-.118-.248-.24-.371-.361-.106-.105-.215-.209-.319-.316l-.057-.061a22.168,22.168,0,0,1,4.526-1.742,16.393,16.393,0,0,0,4.221,6.855C15.111,37.729,15.057,37.718,15,37.7Zm4.1.575c-2.826-.4-5.3-3.351-6.863-7.707a33.566,33.566,0,0,1,6.863-.808Zm0-9.836a34.783,34.783,0,0,0-7.277.868,33.042,33.042,0,0,1-1.3-8.813h8.578v7.945Zm0-9.266H10.53a33.035,33.035,0,0,1,1.3-8.813,34.794,34.794,0,0,0,7.277.868Zm0-9.266A33.53,33.53,0,0,1,12.246,9.1C13.8,4.746,16.282,1.8,19.108,1.4Zm14.9-1.867a18.456,18.456,0,0,1,4.24,11.133H30.328a34.271,34.271,0,0,0-1.334-9.138A22.972,22.972,0,0,0,34.007,8.044ZM24.529,1.969c.139.034.277.078.414.118.167.049.335.1.5.151.139.045.277.093.414.141.162.056.325.114.485.175.137.052.273.107.409.162l.472.2q.2.089.4.184c.154.073.307.147.462.223.132.066.264.132.4.2.149.08.3.162.445.246.132.073.258.149.385.225.145.087.288.177.431.269.125.08.251.161.375.244.141.1.279.194.417.293.122.087.242.174.362.264.136.1.269.209.4.316.116.092.233.185.347.281.132.11.26.224.388.338.112.1.225.2.335.3.126.118.248.24.371.361.106.105.215.209.319.316l.057.061a22.168,22.168,0,0,1-4.526,1.742,16.392,16.392,0,0,0-4.226-6.854C24.421,1.943,24.475,1.955,24.529,1.969Zm-4.1-.574c2.826.4,5.3,3.351,6.863,7.707a33.565,33.565,0,0,1-6.863.808Zm0,9.836a34.783,34.783,0,0,0,7.277-.868,33.042,33.042,0,0,1,1.3,8.813H20.429Zm0,9.266h8.578a33.036,33.036,0,0,1-1.3,8.813h0a34.794,34.794,0,0,0-7.277-.868Zm0,17.781V29.763a33.531,33.531,0,0,1,6.863.808C25.733,34.927,23.256,37.877,20.429,38.278Zm12.628-5.585c-.1.108-.212.211-.318.316-.123.121-.246.243-.372.361-.11.1-.223.2-.335.3-.128.114-.256.227-.386.337-.116.1-.233.19-.351.283s-.264.211-.4.313c-.12.09-.242.178-.365.264s-.274.2-.413.289-.251.166-.378.247-.284.179-.427.264-.258.153-.388.227q-.219.125-.441.244-.2.106-.4.207c-.151.076-.3.149-.455.221-.132.063-.269.125-.406.185l-.47.2c-.137.055-.273.111-.41.163-.161.061-.323.119-.485.175-.137.048-.275.1-.414.141-.165.053-.33.1-.5.151-.138.041-.277.082-.416.12l-.161.039a16.389,16.389,0,0,0,4.221-6.855,22.184,22.184,0,0,1,4.526,1.742C33.095,32.65,33.076,32.673,33.057,32.693Zm.95-1.063a22.948,22.948,0,0,0-5.012-1.995A34.274,34.274,0,0,0,30.328,20.5h7.919A18.453,18.453,0,0,1,34.007,31.63Z" transform="translate(0 -0.022)"/>
    </g>
  </g>
</svg>
