<svg xmlns="http://www.w3.org/2000/svg" xmlns:xlink="http://www.w3.org/1999/xlink" width="31.19" height="39.943" viewBox="0 0 31.19 39.943">
  <title>Icono Descargar documento</title>
  <defs>
    <clipPath>
      <rect data-name="Rectángulo 2668" width="31.19" height="39.943" transform="translate(0 0)"/>
    </clipPath>
  </defs>
  <g data-name="Grupo 1911" transform="translate(0 0)">
    <g data-name="Grupo 1911" clip-path="url(#clip-path)">
      <path data-name="Trazado 2793" d="M22.089,22.1a1.077,1.077,0,0,0-.665-.231,1,1,0,0,0-.712.3L16.6,26.3V14.137a1.022,1.022,0,0,0-1.035-1.048,1.009,1.009,0,0,0-.982,1.035v12.17l-4.11-4.128a1.112,1.112,0,0,0-.764-.318.983.983,0,0,0-.719.311,1.016,1.016,0,0,0,.041,1.434l5.844,5.844a1.008,1.008,0,0,0,.717.3h0a1.008,1.008,0,0,0,.712-.3L22.147,23.6a1.015,1.015,0,0,0,.246-1.043Z"/>
      <path data-name="Trazado 2794" d="M30.275,8.3,24.542,1.412A3.917,3.917,0,0,0,21.527,0H3.926A3.93,3.93,0,0,0,0,3.926v32.09a3.931,3.931,0,0,0,3.926,3.927H27.265a3.931,3.931,0,0,0,3.926-3.927V10.809a3.937,3.937,0,0,0-.916-2.51m-7.836-6.26,5.584,6.713H24.35a1.912,1.912,0,0,1-1.911-1.909Zm6.735,33.977a1.911,1.911,0,0,1-1.909,1.909H3.926a1.911,1.911,0,0,1-1.909-1.909V3.926a1.912,1.912,0,0,1,1.909-1.91h16.5V6.843a3.93,3.93,0,0,0,3.926,3.925h4.824Z"/>
    </g>
  </g>
</svg>
